#!OML:ASF I:\Actors\actors\Patient Classification 1\Patient 1\Session 1\Subject1.ASF
:FULLY-SPECIFIED
:DEGREES
457
root 0.504706 17.5515 8.80949 27.7358 14.8177 -9.0874
lowerback 13.2308 0.974306 4.16459
upperback -2.06235 1.98538 -0.102802
thorax -9.53295 0.721068 -2.88466
lowerneck 1.41126 -9.07757 -3.32459
upperneck -31.0581 -8.78309 17.6047
head -8.79579 -5.61996 7.37465
rclavicle 5.96354e-015 -4.05521e-014
rhumerus 11.119 37.9154 -61.1427
rradius 85.1101
rwrist 22.108
rhand -5.8816 -29.3137
rfingers 7.12502
rthumb 19.9462 -58.3101
lclavicle 5.96354e-015 -4.05521e-014
lhumerus 42.1605 -54.4515 27.1139
lradius 75.3827
lwrist -2.20252
lhand -44.7571 -15.4769
lfingers 7.12502
lthumb -17.5499 13.7509
rfemur -23.5465 38.1248 9.62427
rtibia -0.661507
rfoot -33.2384 -48.71
rtoes 27.7275
lfemur -38.2054 -59.2253 29.3672
ltibia -5.3086
lfoot -44.9594 62.1431
ltoes 28.4102
458
root 0.507643 17.5504 8.81397 27.7464 14.7827 -9.06574
lowerback 13.1212 0.814548 4.07251
upperback -2.20193 1.75419 -0.121038
thorax -9.64296 0.609796 -2.80366
lowerneck 1.85716 -9.21808 -3.25642
upperneck -30.9264 -9.00836 17.6011
head -8.81066 -5.74949 7.38752
rclavicle -9.54166e-015 1.35174e-014
rhumerus 11.3216 38.4743 -61.4176
rradius 84.9791
rwrist 22.0777
rhand -5.80513 -29.3048
rfingers 7.12502
rthumb 20.0197 -58.2934
lclavicle -9.54166e-015 1.35174e-014
lhumerus 41.0951 -54.4809 27.6021
lradius 75.4606
lwrist -2.18203
lhand -44.7943 -15.3463
lfingers 7.12502
lthumb -17.5857 13.8784
rfemur -23.599 38.2829 9.50332
rtibia -0.625697
rfoot -33.483 -48.7986
rtoes 27.7695
lfemur -38.1206 -59.2492 29.2576
ltibia -5.32586
lfoot -44.9885 62.1037
ltoes 28.5528
459
root 0.509697 17.5489 8.81888 27.7435 14.7681 -9.04413
lowerback 13.039 0.712821 4.03064
upperback -2.29129 1.61061 -0.116885
thorax -9.70583 0.540592 -2.74494
lowerneck 2.17861 -9.3334 -3.32138
upperneck -30.8557 -9.1994 17.6114
head -8.81704 -5.84541 7.42298
rclavicle -2.78299e-015 -7.95139e-016
rhumerus 11.4967 38.8409 -61.5274
rradius 84.9015
rwrist 22.0966
rhand -5.68046 -29.2459
rfingers 7.12502
rthumb 20.1395 -58.222
lclavicle -2.78299e-015 -7.95139e-016
lhumerus 40.3858 -54.4941 27.992
lradius 75.4696
lwrist -2.16701
lhand -44.8018 -15.2002
lfingers 7.12502
lthumb -17.593 14.0239
rfemur -23.5705 38.3797 9.45611
rtibia -0.641166
rfoot -33.6332 -48.8467
rtoes 27.8341
lfemur -38.0086 -59.2969 29.1561
ltibia -5.39
lfoot -44.9749 62.1042
ltoes 28.6094
460
root 0.510469 17.5478 8.82535 27.7158 14.7603 -8.98762
lowerback 13.0075 0.669982 3.99978
upperback -2.32126 1.55047 -0.0879481
thorax -9.72662 0.51355 -2.68341
lowerneck 2.30508 -9.52045 -3.57
upperneck -30.7448 -9.52505 17.604
head -8.74276 -5.97734 7.46614
rclavicle -1.59028e-014 -1.03368e-014
rhumerus 11.6596 39.0544 -61.4276
rradius 84.8723
rwrist 22.1167
rhand -5.53869 -29.2168
rfingers 7.12502
rthumb 20.2758 -58.1785
lclavicle -1.59028e-014 -1.03368e-014
lhumerus 40.0113 -54.4845 28.3139
lradius 75.4178
lwrist -2.20966
lhand -44.778 -15.0955
lfingers 7.12502
lthumb -17.57 14.1306
rfemur -23.4451 38.4821 9.44172
rtibia -0.690548
rfoot -33.829 -48.8744
rtoes 27.9587
lfemur -37.8601 -59.3984 28.9882
ltibia -5.44169
lfoot -45.0818 62.0974
ltoes 28.6385
461
root 0.512409 17.5472 8.83298 27.7016 14.7558 -8.91447
lowerback 12.9502 0.641101 3.99081
upperback -2.35136 1.51025 -0.0710353
thorax -9.73011 0.494903 -2.65073
lowerneck 2.46079 -9.7704 -3.56761
upperneck -30.7033 -9.97442 17.3211
head -8.72416 -6.16766 7.38586
rclavicle -1.59028e-014 -1.90833e-014
rhumerus 11.5948 39.1249 -61.478
rradius 85.0364
rwrist 22.2113
rhand -5.28836 -29.1348
rfingers 7.12502
rthumb 20.5163 -58.0707
lclavicle -1.59028e-014 -1.90833e-014
lhumerus 39.7379 -54.4878 28.5781
lradius 75.3522
lwrist -2.30697
lhand -44.6688 -15.1607
lfingers 7.12502
lthumb -17.4649 14.0747
rfemur -23.3401 38.5647 9.3949
rtibia -0.728535
rfoot -33.9301 -48.9493
rtoes 27.8163
lfemur -37.7382 -59.5102 28.81
ltibia -5.45723
lfoot -45.3924 61.984
ltoes 28.8993
462
root 0.514577 17.5461 8.83999 27.7098 14.7609 -8.87167
lowerback 12.827 0.626734 4.02282
upperback -2.39158 1.49389 -0.0489038
thorax -9.70383 0.486241 -2.63904
lowerneck 2.57508 -10.0635 -3.81666
upperneck -30.4226 -10.4858 17.2426
head -8.57098 -6.3794 7.39032
rclavicle 9.14409e-015 7.95139e-015
rhumerus 11.3117 39.0647 -61.6442
rradius 85.4153
rwrist 22.3052
rhand -4.9227 -28.9191
rfingers 7.12502
rthumb 20.8677 -57.8168
lclavicle 9.14409e-015 7.95139e-015
lhumerus 39.536 -54.5039 28.7855
lradius 75.273
lwrist -2.42935
lhand -44.653 -15.2872
lfingers 7.12502
lthumb -17.4497 13.9496
rfemur -23.3117 38.6389 9.33666
rtibia -0.731867
rfoot -34.0429 -49.0207
rtoes 27.6957
lfemur -37.7021 -59.5694 28.7421
ltibia -5.46399
lfoot -45.6038 61.8869
ltoes 29.0509
463
root 0.515043 17.5456 8.84582 27.7094 14.7446 -8.83219
lowerback 12.7258 0.61714 4.02999
upperback -2.42949 1.48131 -0.0206404
thorax -9.68822 0.480747 -2.60806
lowerneck 2.63814 -10.3525 -4.05484
upperneck -30.1441 -10.9979 17.118
head -8.41442 -6.58701 7.3726
rclavicle 3.97569e-015 4.69132e-014
rhumerus 11.3697 39.1771 -61.5539
rradius 85.4139
rwrist 22.2762
rhand -4.80288 -28.758
rfingers 7.12502
rthumb 20.9828 -57.643
lclavicle 3.97569e-015 4.69132e-014
lhumerus 39.2873 -54.5397 29.0294
lradius 75.2215
lwrist -2.49474
lhand -44.8544 -15.4096
lfingers 7.12502
lthumb -17.6435 13.8099
rfemur -23.2911 38.7379 9.27779
rtibia -0.725062
rfoot -34.2551 -49.0459
rtoes 27.9237
lfemur -37.6785 -59.599 28.6792
ltibia -5.46005
lfoot -45.5203 61.9414
ltoes 28.9178
